<svg xmlns="http://www.w3.org/2000/svg" width="98.132" height="112.687" viewBox="0 0 98.132 112.687">
  <g id="_001-idea" data-name="001-idea" transform="translate(-33.066)">
    <path id="Path_35" data-name="Path 35" d="M154.078,145.908A26.434,26.434,0,0,1,162.06,133.7a32.069,32.069,0,0,0,11.5-24.65,32.415,32.415,0,0,0-34.041-32.4c-16.668.7-30.285,14.79-30.754,31.458a32.161,32.161,0,0,0,11.5,25.589,25.189,25.189,0,0,1,8.217,12.208Z" transform="translate(-59.034 -59.749)" fill="#ffdd54"/>
    <path id="Path_36" data-name="Path 36" d="M208.531,255.5h2.113l-9.391-34.98h.7a4.634,4.634,0,0,0,3.287-1.409,2.27,2.27,0,0,1,3.287,0,4.011,4.011,0,0,0,6.1,0,2.132,2.132,0,0,1,1.643-.7,2.537,2.537,0,0,1,1.643.7,4.262,4.262,0,0,0,3.287,1.409h.7l-9.156,34.98h2.113l9.625-36.623c0-.469,0-.939-.469-1.174a1.032,1.032,0,0,0-1.174.235,2.029,2.029,0,0,1-1.409.7,3.122,3.122,0,0,1-1.878-.7,4.011,4.011,0,0,0-6.1,0,2.269,2.269,0,0,1-3.287,0,3.785,3.785,0,0,0-3.052-1.409h0a3.786,3.786,0,0,0-3.052,1.409,2.666,2.666,0,0,1-1.878.7,1.674,1.674,0,0,1-1.409-.7,1.032,1.032,0,0,0-1.174-.235.857.857,0,0,0-.469,1.174Z" transform="translate(-129.451 -168.877)" fill="#fff"/>
    <g id="Group_27" data-name="Group 27" transform="translate(69.455 85.924)">
      <path id="Path_37" data-name="Path 37" d="M222.933,489.6a7.837,7.837,0,0,0,14.556,0Z" transform="translate(-217.533 -467.767)" fill="#344a5e"/>
      <path id="Path_38" data-name="Path 38" d="M219.764,412.468H202.626a4.208,4.208,0,0,1-4.226-4.226V390.4h25.589v17.842A4.208,4.208,0,0,1,219.764,412.468Z" transform="translate(-198.4 -390.4)" fill="#344a5e"/>
    </g>
    <g id="Group_28" data-name="Group 28" transform="translate(66.872 89.68)">
      <path id="Path_39" data-name="Path 39" d="M214.6,412.632H189.249a2.605,2.605,0,0,1-2.582-2.582h0a2.605,2.605,0,0,1,2.582-2.582H214.6a2.605,2.605,0,0,1,2.582,2.582h0A2.605,2.605,0,0,1,214.6,412.632Z" transform="translate(-186.667 -407.467)" fill="#415a6b"/>
      <path id="Path_40" data-name="Path 40" d="M214.6,449.966H189.249a2.605,2.605,0,0,1-2.582-2.582h0a2.605,2.605,0,0,1,2.582-2.582H214.6a2.605,2.605,0,0,1,2.582,2.582h0A2.605,2.605,0,0,1,214.6,449.966Z" transform="translate(-186.667 -436.584)" fill="#415a6b"/>
    </g>
    <g id="Group_29" data-name="Group 29" transform="translate(33.066)">
      <path id="Path_41" data-name="Path 41" d="M247.681,0a2.353,2.353,0,0,0-2.348,2.348V10.33a2.353,2.353,0,0,0,2.348,2.348,2.218,2.218,0,0,0,2.348-2.348V2.348A2.353,2.353,0,0,0,247.681,0Z" transform="translate(-198.615)" fill="#ffb454"/>
      <path id="Path_42" data-name="Path 42" d="M98.925,62.571a2.324,2.324,0,0,0-3.287,3.287l5.634,5.634a2.324,2.324,0,1,0,3.287-3.287Z" transform="translate(-81.317 -48.25)" fill="#ffb454"/>
      <path id="Path_43" data-name="Path 43" d="M43.4,212.267H35.414a2.353,2.353,0,0,0-2.348,2.348h0a2.353,2.353,0,0,0,2.348,2.348H43.4a2.353,2.353,0,0,0,2.348-2.348h0A2.525,2.525,0,0,0,43.4,212.267Z" transform="translate(-33.066 -165.549)" fill="#ffb454"/>
      <path id="Path_44" data-name="Path 44" d="M101.271,337.771l-5.634,5.634a2.324,2.324,0,0,0,3.287,3.287l5.634-5.634a2.324,2.324,0,0,0-3.287-3.287Z" transform="translate(-81.316 -262.881)" fill="#ffb454"/>
      <path id="Path_45" data-name="Path 45" d="M374.124,337.771a2.324,2.324,0,1,0-3.287,3.287l5.634,5.634a2.324,2.324,0,0,0,3.287-3.287Z" transform="translate(-295.947 -262.881)" fill="#ffb454"/>
      <path id="Path_46" data-name="Path 46" d="M431.663,212.267h-7.982a2.353,2.353,0,0,0-2.348,2.348h0a2.353,2.353,0,0,0,2.348,2.348h7.982a2.353,2.353,0,0,0,2.348-2.348h0A2.353,2.353,0,0,0,431.663,212.267Z" transform="translate(-335.879 -165.549)" fill="#ffb454"/>
      <path id="Path_47" data-name="Path 47" d="M376.471,62.571l-5.634,5.634a2.324,2.324,0,0,0,3.287,3.287l5.634-5.634a2.324,2.324,0,0,0-3.287-3.287Z" transform="translate(-295.947 -48.251)" fill="#ffb454"/>
    </g>
  </g>
</svg>
