<svg xmlns="http://www.w3.org/2000/svg" width="106.541" height="106.542" viewBox="0 0 106.541 106.542">
  <g id="_002-magic-wand" data-name="002-magic-wand" transform="translate(0 0.002)">
    <path id="Path_48" data-name="Path 48" d="M202.828,168.615a3.121,3.121,0,0,1-2.207-5.328l31.511-31.512a3.121,3.121,0,0,1,4.414,4.414L205.035,167.7A3.111,3.111,0,0,1,202.828,168.615Z" transform="translate(-158.15 -103.632)" fill="#ffb454"/>
    <path id="Path_49" data-name="Path 49" d="M204.1,171.179a3.121,3.121,0,0,0,4.414,0l31.511-31.512a3.121,3.121,0,0,0,0-4.414L204.1,171.179Z" transform="translate(-161.629 -107.11)" fill="#ff8659"/>
    <path id="Path_50" data-name="Path 50" d="M305.771,47.346a3.122,3.122,0,0,1-2.981-2.195l-3.826-12.308-12.308-3.826a3.122,3.122,0,0,1-.876-5.529L296.3,16.047l-.165-12.888A3.121,3.121,0,0,1,301.127.618l10.329,7.708,12.206-4.139a3.121,3.121,0,0,1,3.958,3.958l-4.139,12.206L331.19,30.68a3.121,3.121,0,0,1-2.541,4.988L315.761,35.5l-7.442,10.523A3.119,3.119,0,0,1,305.771,47.346Z" transform="translate(-225.269 0)" fill="#ffdd54"/>
    <path id="Path_51" data-name="Path 51" d="M1.828,323.345a6.242,6.242,0,0,1,0-8.828L39.349,277a3.121,3.121,0,0,1,4.414,0l4.414,4.414a3.121,3.121,0,0,1,0,4.414L10.657,323.345a6.242,6.242,0,0,1-8.828,0Z" transform="translate(0 -218.634)" fill="#6b61b1"/>
    <g id="Group_30" data-name="Group 30" transform="translate(68.711 47.091)">
      <path id="Path_52" data-name="Path 52" d="M437.607,296.243h-3.121v-3.121a3.121,3.121,0,1,0-6.243,0v3.121h-3.121a3.121,3.121,0,0,0,0,6.243h3.121v3.121a3.121,3.121,0,1,0,6.243,0v-3.121h3.121a3.121,3.121,0,1,0,0-6.243Z" transform="translate(-402.898 -276.747)" fill="#ffb454"/>
      <ellipse id="Ellipse_13" data-name="Ellipse 13" cx="3.5" cy="3" rx="3.5" ry="3" transform="translate(-0.441 16.176)" fill="#ffb454"/>
      <circle id="Ellipse_14" data-name="Ellipse 14" cx="3" cy="3" r="3" transform="translate(25.559 0.176)" fill="#ffb454"/>
    </g>
    <g id="Group_31" data-name="Group 31" transform="translate(26.249 -0.002)">
      <path id="Path_53" data-name="Path 53" d="M146.607,146.243h-3.121v-3.121a3.121,3.121,0,1,0-6.243,0v3.121h-3.121a3.121,3.121,0,0,0,0,6.243h3.121v3.121a3.121,3.121,0,1,0,6.243,0v-3.121h3.121a3.121,3.121,0,1,0,0-6.243Z" transform="translate(-129.99 -110.868)" fill="#ffdd54"/>
      <path id="Path_54" data-name="Path 54" d="M216.607,6.243h-3.121V3.121a3.121,3.121,0,1,0-6.243,0V6.243h-3.121a3.121,3.121,0,0,0,0,6.243h3.121v3.121a3.121,3.121,0,1,0,6.243,0V12.485h3.121a3.121,3.121,0,0,0,0-6.243Z" transform="translate(-185.424)" fill="#ffdd54"/>
      <circle id="Ellipse_15" data-name="Ellipse 15" cx="3" cy="3" r="3" transform="translate(0.021 15.269)" fill="#ffdd54"/>
    </g>
    <g id="Group_32" data-name="Group 32" transform="translate(1.828 4.936)">
      <path id="Path_55" data-name="Path 55" d="M354.156,51.638l3.826,12.308a3.121,3.121,0,0,0,5.529.876L370.953,54.3l12.888.165a3.121,3.121,0,0,0,2.541-4.988l-7.708-10.329,4.139-12.206a3.122,3.122,0,0,0-.749-3.21Z" transform="translate(-282.289 -23.731)" fill="#ffb454"/>
      <path id="Path_56" data-name="Path 56" d="M8.787,335.223a6.242,6.242,0,0,0,8.828,0L55.136,297.7a3.121,3.121,0,0,0,0-4.414l-2.207-2.207Z" transform="translate(-8.787 -235.449)" fill="#453d81"/>
    </g>
  </g>
</svg>
