<svg xmlns="http://www.w3.org/2000/svg" width="98.385" height="94.493" viewBox="0 0 98.385 94.493">
  <g id="_003-revision" data-name="003-revision" transform="translate(0 -9.832)">
    <g id="Group_33" data-name="Group 33" transform="translate(23.04 62.081)">
      <path id="Path_57" data-name="Path 57" d="M134.342,276.742H117.875a1.485,1.485,0,1,1,0-2.969h16.468a1.485,1.485,0,0,1,0,2.969Z" transform="translate(-116.39 -273.773)" fill="#99e6fc"/>
      <path id="Path_58" data-name="Path 58" d="M282.824,310.14H279.2a1.485,1.485,0,0,1,0-2.969h3.625a1.485,1.485,0,1,1,0,2.969Z" transform="translate(-245.779 -300.56)" fill="#99e6fc"/>
      <path id="Path_59" data-name="Path 59" d="M160.785,310.14H140.233a1.485,1.485,0,0,1,0-2.969h20.552a1.485,1.485,0,1,1,0,2.969Z" transform="translate(-134.322 -300.56)" fill="#99e6fc"/>
    </g>
    <path id="Path_60" data-name="Path 60" d="M93.575,81.5H91.413a1.579,1.579,0,0,0-1.52,1.154,45.781,45.781,0,1,1-26.93-54.886,2.5,2.5,0,0,1,.822,4.074l-5.311,5.309a4.178,4.178,0,0,1-4.04,1.079A33.185,33.185,0,0,0,45.8,37.1q-1.434,0-2.841.121a33.149,33.149,0,0,0,.014,66.055q1.167.1,2.356.115A33.151,33.151,0,0,0,76.091,83.722,1.579,1.579,0,0,0,74.646,81.5h-2.11a4.845,4.845,0,0,1-3.757-7.829l10.23-12.748a5.187,5.187,0,0,1,8.091,0L97.33,73.675A4.844,4.844,0,0,1,93.575,81.5Z" transform="translate(0 -11.722)" fill="#ffdd54"/>
    <g id="Group_34" data-name="Group 34" transform="translate(7.011 12.726)">
      <path id="Path_61" data-name="Path 61" d="M71.378,154.544c-1.081.089-2.178.131-3.288.115a33.147,33.147,0,0,1,.473-66.29c.944,0,1.877.044,2.8.121a33.149,33.149,0,0,0,.014,66.055Z" transform="translate(-35.416 -75.716)" fill="#ffb454"/>
      <path id="Path_62" data-name="Path 62" d="M231.5,27.777a2.493,2.493,0,0,1,.821,4.072l-5.31,5.31a4.172,4.172,0,0,1-.687.553q1.158.224,2.288.526a4.178,4.178,0,0,0,4.041-1.08l5.31-5.31a2.493,2.493,0,0,0-.821-4.072,45.642,45.642,0,0,0-16.956-3.326c-1.013,0-2.018.028-3.016.089A45.54,45.54,0,0,1,231.5,27.777Z" transform="translate(-181.188 -24.451)" fill="#ffb454"/>
      <path id="Path_63" data-name="Path 63" d="M271.532,213.622,261.3,200.875a5.188,5.188,0,0,0-7.536-.59,5.146,5.146,0,0,1,3.091,1.851l9.033,11.486a4.844,4.844,0,0,1-3.756,7.829h-2.162a1.577,1.577,0,0,0-1.518,1.152A45.825,45.825,0,0,1,217.2,255.9c.928.056,1.862.088,2.8.088A45.816,45.816,0,0,0,264.1,222.605a1.578,1.578,0,0,1,1.519-1.154h2.162A4.844,4.844,0,0,0,271.532,213.622Z" transform="translate(-181.213 -164.394)" fill="#ffb454"/>
    </g>
    <g id="Group_36" data-name="Group 36" transform="translate(40.221 9.832)">
      <path id="Path_64" data-name="Path 64" d="M274.079,60.642,241.443,93.278l-4.256-1.386-1.94-.633-2-6.174,32.633-32.635,6.893,1.869.339,1.647Z" transform="translate(-227.298 -44.013)" fill="#0593fc"/>
      <path id="Path_65" data-name="Path 65" d="M290.031,74.887,257.4,107.522l-4.256-1.386,35.927-35.927Z" transform="translate(-243.25 -58.257)" fill="#0181fa"/>
      <path id="Path_66" data-name="Path 66" d="M413.039,19.723,406.3,26.463,398.1,18.268l6.739-6.739a5.794,5.794,0,1,1,8.194,8.194Z" transform="translate(-359.518 -9.832)" fill="#f07281"/>
      <path id="Path_67" data-name="Path 67" d="M434.811,11.532a5.8,5.8,0,0,0-6.919-.964,5.794,5.794,0,0,1,1.276,9.159l-3.918,3.918,2.821,2.821,6.739-6.739a5.794,5.794,0,0,0,0-8.194Z" transform="translate(-381.29 -9.835)" fill="#eb5569"/>
      <path id="Path_68" data-name="Path 68" d="M217.327,225.5l-2.34,2.34a6.129,6.129,0,0,1-2.838,1.61l-7.8,1.974a.938.938,0,0,1-1.14-1.139l1.973-7.8a6.128,6.128,0,0,1,1.61-2.838l2.34-2.34Z" transform="translate(-203.181 -176.236)" fill="#fff3be"/>
      <path id="Path_69" data-name="Path 69" d="M209.346,249.613a6.129,6.129,0,0,1-2.838,1.61l-3.3.834a.938.938,0,0,0,1.14,1.139l7.8-1.974a6.128,6.128,0,0,0,2.838-1.61l2.34-2.34-2.821-2.821Z" transform="translate(-203.182 -198.007)" fill="#ffec9c"/>
      <g id="Group_35" data-name="Group 35" transform="translate(32.764 12.159)">
        <path id="Path_70" data-name="Path 70" d="M0,0H2.968V11.587H0Z" transform="translate(0 2.098) rotate(-45)" fill="#0181fa"/>
      </g>
    </g>
  </g>
</svg>
