<svg xmlns="http://www.w3.org/2000/svg" width="122.794" height="122.793" viewBox="0 0 122.794 122.793">
  <g id="_004-trowel" data-name="004-trowel" transform="translate(0 -0.001)">
    <g id="Group_37" data-name="Group 37" transform="translate(58.136 18.908)">
      <path id="Path_71" data-name="Path 71" d="M285.509,113.864l-38.555,10.591a3.6,3.6,0,0,1-4.422-4.422l10.591-38.555a3.6,3.6,0,0,1,6.013-1.59l13.982,13.982L287.1,107.851A3.6,3.6,0,0,1,285.509,113.864Z" transform="translate(-242.403 -78.832)" fill="#766d78"/>
    </g>
    <path id="Path_72" data-name="Path 72" d="M290.442,155.511a3.6,3.6,0,0,1-1.59,6.013c-41.44,11.383-38.8,10.72-39.507,10.72a3.6,3.6,0,0,1-2.545-1.055l29.66-29.66Z" transform="translate(-187.61 -107.585)" fill="#554e56"/>
    <path id="Path_73" data-name="Path 73" d="M240.066,415.223h-43.96v23.21h43.96a3.072,3.072,0,0,0,3.072-3.072V418.295A3.072,3.072,0,0,0,240.066,415.223Z" transform="translate(-149.074 -315.638)" fill="#ff8756"/>
    <path id="Path_74" data-name="Path 74" d="M47.032,415.223H3.072A3.072,3.072,0,0,0,0,418.3v17.066a3.072,3.072,0,0,0,3.072,3.072h43.96v-23.21Z" transform="translate(0 -315.638)" fill="#ffb454"/>
    <path id="Path_75" data-name="Path 75" d="M43.96,221.67H3.072A3.072,3.072,0,0,0,0,224.742v17.066a3.072,3.072,0,0,0,3.072,3.072H43.96a3.072,3.072,0,0,0,3.072-3.072V224.742A3.072,3.072,0,0,0,43.96,221.67Z" transform="translate(0 -168.505)" fill="#ffb454"/>
    <path id="Path_76" data-name="Path 76" d="M145.085,318.446h-43.96a3.072,3.072,0,0,0-3.072,3.072v17.066a3.072,3.072,0,0,0,3.072,3.072h43.96v-23.21Z" transform="translate(-74.537 -242.072)" fill="#ffdd54"/>
    <path id="Path_77" data-name="Path 77" d="M338.119,318.446h-43.96v23.21h43.96a3.072,3.072,0,0,0,3.072-3.072V321.518A3.072,3.072,0,0,0,338.119,318.446Z" transform="translate(-223.61 -242.072)" fill="#ffb454"/>
    <g id="Group_38" data-name="Group 38" transform="translate(77.171 22.973)">
      <path id="Path_78" data-name="Path 78" d="M326.138,116.77l-3.313.608h0a3.6,3.6,0,0,1,0-5.087L338.28,96.834a3.6,3.6,0,0,1,5.089,0v3.261Z" transform="translate(-321.77 -95.782)" fill="#e5eaee"/>
    </g>
    <path id="Path_79" data-name="Path 79" d="M346.714,105.258l-15.46,15.457a3.593,3.593,0,0,1-5.084,0l20.544-20.544A3.6,3.6,0,0,1,346.714,105.258Z" transform="translate(-247.944 -76.144)" fill="#cfcfde"/>
    <g id="Group_39" data-name="Group 39" transform="translate(89.939 0.002)">
      <path id="Path_80" data-name="Path 80" d="M403.61,11.742,387.461,28.617l-7.508-.7-3.89-3.89a3.6,3.6,0,0,1,0-5.087L393.947,1.054a3.6,3.6,0,0,1,5.087,0l3.89,3.89Z" transform="translate(-375.01 -0.002)" fill="#e58944"/>
    </g>
    <path id="Path_81" data-name="Path 81" d="M423.532,27.041a3.6,3.6,0,0,1-1.053,2.542L404.594,47.468a3.6,3.6,0,0,1-5.087,0L395.62,43.58l22.971-22.971,3.888,3.888A3.6,3.6,0,0,1,423.532,27.041Z" transform="translate(-300.738 -15.665)" fill="#ca671b"/>
  </g>
</svg>
