<svg id="_005-verification" data-name="005-verification" xmlns="http://www.w3.org/2000/svg" width="111.889" height="111.889" viewBox="0 0 111.889 111.889">
  <path id="Path_82" data-name="Path 82" d="M111.889,55.945A55.945,55.945,0,1,1,55.945,0,55.945,55.945,0,0,1,111.889,55.945Z" fill="#ffdd54"/>
  <path id="Path_83" data-name="Path 83" d="M123.084,166.493l40.425,40.425a56.011,56.011,0,0,0,43.407-43.407l-40.425-40.425Z" transform="translate(-96.186 -96.188)" fill="#ffb454"/>
  <g id="Group_51" data-name="Group 51" transform="translate(25.27 25.27)">
    <path id="Path_84" data-name="Path 84" d="M146.311,117.9c-4.148,0-8.941-3.379-12.548-1.883-3.74,1.551-4.722,7.385-7.54,10.2s-8.653,3.8-10.2,7.54c-1.5,3.607,1.883,8.4,1.883,12.548s-3.378,8.941-1.883,12.548c1.551,3.74,7.385,4.722,10.2,7.54s3.8,8.653,7.54,10.2c3.607,1.5,8.4-1.883,12.548-1.883l14.127-31.962Z" transform="translate(-115.636 -115.636)" fill="#00d08b"/>
    <path id="Path_85" data-name="Path 85" d="M256,117.9V174.72c4.148,0,8.941,3.379,12.548,1.883,3.74-1.551,4.722-7.386,7.54-10.2s8.653-3.8,10.2-7.54c1.5-3.607-1.883-8.4-1.883-12.548s3.379-8.941,1.883-12.548c-1.551-3.74-7.385-4.722-10.2-7.541s-3.8-8.653-7.54-10.2c-3.607-1.5-8.4,1.883-12.548,1.883Z" transform="translate(-225.326 -115.636)" fill="#00b479"/>
    <g id="Group_50" data-name="Group 50" transform="translate(8.636 8.636)">
      <g id="Group_49" data-name="Group 49">
        <g id="Group_48" data-name="Group 48">
          <g id="Group_43" data-name="Group 43">
            <g id="Group_42" data-name="Group 42">
              <g id="Group_41" data-name="Group 41">
                <g id="Group_40" data-name="Group 40">
                  <path id="Path_86" data-name="Path 86" d="M191.319,177.191,177.191,199.23a22.038,22.038,0,0,1,0-44.077Z" transform="translate(-155.153 -155.153)" fill="#00ec9d"/>
                </g>
              </g>
            </g>
          </g>
          <g id="Group_47" data-name="Group 47" transform="translate(22.038)">
            <g id="Group_46" data-name="Group 46">
              <g id="Group_45" data-name="Group 45">
                <g id="Group_44" data-name="Group 44">
                  <path id="Path_87" data-name="Path 87" d="M278.038,177.191A22.039,22.039,0,0,1,256,199.23V155.153A22.039,22.039,0,0,1,278.038,177.191Z" transform="translate(-256 -155.153)" fill="#00d08b"/>
                </g>
              </g>
            </g>
          </g>
        </g>
      </g>
      <path id="Path_88" data-name="Path 88" d="M202.634,243.829l-3.009,3.8-7.226-7.885-4.688,4.3,12.266,13.385,2.658-3.354,2.753-7.391Z" transform="translate(-180.596 -221.256)" fill="#fff"/>
      <path id="Path_89" data-name="Path 89" d="M256,222.009l15.326-19.343-4.984-3.949L256,211.77Z" transform="translate(-233.962 -189.197)" fill="#e9e9ec"/>
    </g>
  </g>
</svg>
